<svg xmlns="http://www.w3.org/2000/svg" x="0px" y="0px" width="100" height="100" viewBox="0,0,256,256"
style="fill:#02c1d3;">
<g fill="#02c1d3" fill-rule="nonzero" stroke="none" stroke-width="1" stroke-linecap="butt" stroke-linejoin="miter" stroke-miterlimit="10" stroke-dasharray="" stroke-dashoffset="0" font-family="none" font-weight="none" font-size="none" text-anchor="none" style="mix-blend-mode: normal"><g transform="scale(10.66667,10.66667)"><path d="M18.504,21.868l-6.008,-3.434c-0.307,-0.176 -0.685,-0.176 -0.992,0l-6.008,3.434c-0.666,0.382 -1.496,-0.1 -1.496,-0.868v-10c0,-0.552 0.448,-1 1,-1h14c0.552,0 1,0.448 1,1v10c0,0.768 -0.83,1.25 -1.496,0.868zM19,8h-14c-0.553,0 -1,-0.447 -1,-1c0,-0.553 0.447,-1 1,-1h14c0.553,0 1,0.447 1,1c0,0.553 -0.447,1 -1,1zM19,4h-14c-0.553,0 -1,-0.447 -1,-1c0,-0.553 0.447,-1 1,-1h14c0.553,0 1,0.447 1,1c0,0.553 -0.447,1 -1,1z"></path></g></g>
</svg>